<svg width="24" height="52" viewBox="0 0 24 52" fill="none" xmlns="http://www.w3.org/2000/svg">
<path fill-rule="evenodd" clip-rule="evenodd" d="M24 8C24 8.66675 23.997 9.33342 23.9911 10C23.8724 23.4357 22.5572 36.8341 20.0613 50.0364C19.9374 50.6914 19.8107 51.346 19.6811 52L0 48C2.21245 36.7752 3.5914 25.2953 3.92241 13.5156C3.96101 12.0459 3.95798 10.5724 3.95547 9.09523C3.95486 8.73038 3.95424 8.3653 3.95424 8H24ZM18.1012 49.638L2.33822 46.4343C4.35091 35.7299 5.61487 24.787 5.93153 13.5697L21.9284 14.0003C21.6069 25.9603 20.323 37.8777 18.1012 49.638Z" fill="white"/>
</svg>
