<svg width="24" height="52" viewBox="0 0 24 52" fill="none" xmlns="http://www.w3.org/2000/svg">
<path fill-rule="evenodd" clip-rule="evenodd" d="M24 8C24 8.66675 23.997 9.33342 23.9911 10C23.8724 23.4357 22.5572 36.8341 20.0613 50.0364C19.9374 50.6914 19.8107 51.346 19.6811 52L0 48C1.70599 39.3447 2.91641 30.5377 3.53293 21.5586C3.82773 17.1356 3.99554 12.6759 3.99992 8.18049C3.99997 8.12034 4 8.06017 4 8H24ZM18.1012 49.638L2.33822 46.4343C3.67387 39.3307 4.67978 32.1221 5.29795 24.798L21.2742 26.0996C20.6327 33.9924 19.5726 41.8496 18.1012 49.638Z" fill="white"/>
</svg>
