<svg width="24" height="52" viewBox="0 0 24 52" fill="none" xmlns="http://www.w3.org/2000/svg">
<path fill-rule="evenodd" clip-rule="evenodd" d="M24 8C24 8.66675 23.997 9.33342 23.9911 10C23.8724 23.4357 22.5572 36.8341 20.0613 50.0364C19.9374 50.6914 19.8107 51.346 19.6811 52L0 48C2.41816 35.7315 3.84063 23.1583 3.98739 10.222C3.9911 9.89362 3.99401 9.56501 3.9961 9.23619C3.9987 8.82449 4 8.41243 4 8H24ZM18.1012 49.638L2.33822 46.4343C4.12792 36.9158 5.32561 27.2088 5.79167 17.288L21.7846 18.0083C21.3082 28.622 20.0747 39.1919 18.1012 49.638Z" fill="white"/>
</svg>
